inDegrees=no
DataType=double
version=3
OpenSimVersion=4.4-2022-10-11-798caa840
endheader
time	elv_angle	shoulder_elv	shoulder_rot	elbow_flexion	pro_sup	deviation	flexion
2.4020851434	0.4822354245	0.7278367893	0.4162894053	1.4037274547	-0.0642968180	-0.0340223098	0.2211836187
2.4062554301	0.4822354245	0.7278367893	0.4162894053	1.4037274547	-0.0642968180	-0.0340223098	0.2211836187
2.4104257168	0.4822354245	0.7278367893	0.4162894053	1.4037274547	-0.0642968180	-0.0340223098	0.2211836187
2.4145960035	0.4822354245	0.7278367893	0.4162894053	1.4037274547	-0.0642968180	-0.0340223098	0.2211836187
2.4187662902	0.4822354245	0.7278367893	0.4162894053	1.4037274547	-0.0642968180	-0.0340223098	0.2211836187
2.4229365769	0.4822354245	0.7278367893	0.4162894053	1.4037274547	-0.0642968180	-0.0340223098	0.2211836187
2.4271068636	0.4822354245	0.7278367893	0.4162894053	1.4037274547	-0.0642968180	-0.0340223098	0.2211836187
2.4312771503	0.4822354245	0.7278367893	0.4162894053	1.4037274547	-0.0642968180	-0.0340223098	0.2211836187
2.4354474370	0.4822354245	0.7278367893	0.4162894053	1.4037274547	-0.0642968180	-0.0340223098	0.2211836187
2.4396177237	0.4822354245	0.7278367893	0.4162894053	1.4037274547	-0.0642968180	-0.0340223098	0.2211836187
2.4437880104	0.4822354245	0.7278367893	0.4162894053	1.4037274547	-0.0642968180	-0.0340223098	0.2211836187
2.4479582971	0.4822354245	0.7278367893	0.4162894053	1.4037274547	-0.0642968180	-0.0340223098	0.2211836187
2.4521285838	0.4822354245	0.7278367893	0.4162894053	1.4037274547	-0.0642968180	-0.0340223098	0.2211836187
2.4562988705	0.4821265585	0.7171995161	0.4215662370	1.4142940685	-0.0564232384	-0.0316005558	0.2202705196
2.4604691573	0.4812008378	0.7095456889	0.4267834855	1.4206913123	-0.0519443779	-0.0279311531	0.2195571440
2.4646394440	0.4802581413	0.7026110657	0.4292952490	1.4287597983	-0.0469706899	-0.0257476679	0.2171659949
2.4688097307	0.4799161767	0.6949851092	0.4285818497	1.4408036872	-0.0397737282	-0.0253538288	0.2130375534
2.4729800174	0.4802692377	0.6876230885	0.4296887235	1.4495115739	-0.0344868303	-0.0207800808	0.2117119577
2.4771503041	0.4814888696	0.6800452413	0.4301034768	1.4557762119	-0.0300587607	-0.0157525532	0.2093419022
2.4813205908	0.4832613870	0.6714691780	0.4265361680	1.4637632232	-0.0238599165	-0.0159484216	0.2027929860
2.4854908775	0.4841698816	0.6631892403	0.4256512166	1.4706770699	-0.0188078948	-0.0160346660	0.2023930406
2.4896611642	0.4845736996	0.6564140806	0.4260951967	1.4782823529	-0.0160842701	-0.0162529359	0.2045193190
2.4938314509	0.4853243566	0.6505023051	0.4244838153	1.4876301419	-0.0148255173	-0.0171812164	0.2020765189
2.4980017376	0.4864739206	0.6431228942	0.4219243266	1.4945865810	-0.0128850622	-0.0152204707	0.1960564954
2.5021720243	0.4881821282	0.6383288783	0.4189681543	1.4991342808	-0.0081219159	-0.0143896826	0.1901827814
2.5063423110	0.4902018766	0.6373335326	0.4170125869	1.5029060675	-0.0015462123	-0.0158062461	0.1871957097
2.5105125977	0.4918479608	0.6354129322	0.4179863669	1.5067975571	0.0026647527	-0.0148292591	0.1864394210
2.5146828844	0.4931881802	0.6317950463	0.4193007238	1.5092329491	0.0038472550	-0.0148597930	0.1821553313
2.5188531712	0.4944399512	0.6281258162	0.4193041408	1.5103201506	0.0038961457	-0.0157039549	0.1734279472
2.5230234579	0.4957098604	0.6260538405	0.4188673892	1.5118012958	0.0052712254	-0.0136168301	0.1644035682
2.5271937446	0.4969840691	0.6235881935	0.4197686021	1.5132343636	0.0074077076	-0.0121702534	0.1558076485
2.5313640313	0.4983310771	0.6203159156	0.4208851244	1.5149868636	0.0082575245	-0.0115743480	0.1473137781
2.5355343180	0.4998552324	0.6174103776	0.4203372425	1.5174069603	0.0073838422	-0.0094876504	0.1384371238
2.5397046047	0.5015684097	0.6155180336	0.4198867449	1.5186885805	0.0092533157	-0.0064184011	0.1287748925
2.5438748914	0.5036271381	0.6141916737	0.4200610677	1.5193890878	0.0127461877	-0.0034136732	0.1173862786
2.5480451781	0.5057555760	0.6129510009	0.4204244025	1.5207220538	0.0148548830	-0.0010309149	0.1049945996
2.5522154648	0.5070048017	0.6122125930	0.4207138503	1.5221580678	0.0157534779	0.0010806225	0.0952189806
2.5563857515	0.5084386100	0.6116577449	0.4210194958	1.5224535933	0.0154242328	0.0026401070	0.0864362689
2.5605560382	0.5103558819	0.6109474939	0.4212610286	1.5217814104	0.0139597872	0.0035765629	0.0769506226
2.5647263249	0.5111817904	0.6102118327	0.4211323056	1.5220952105	0.0120976455	0.0044627187	0.0678073097
2.5688966116	0.5117431717	0.6095230404	0.4213980023	1.5226460822	0.0113110744	0.0053786784	0.0573588389
2.5730668983	0.5127032217	0.6089715847	0.4221120733	1.5222046514	0.0114467121	0.0064410928	0.0462337173
2.5772371851	0.5136972301	0.6086628737	0.4224332262	1.5205721532	0.0109256452	0.0077883017	0.0376922535
2.5814074718	0.5145173191	0.6085611818	0.4224660777	1.5195264634	0.0103162595	0.0088029924	0.0317765390
2.5855777585	0.5151331113	0.6085916421	0.4223578184	1.5193257435	0.0104668987	0.0090973589	0.0271592032
2.5897480452	0.5156907003	0.6086423197	0.4222043671	1.5191971240	0.0113639925	0.0088815688	0.0225889315
2.5939183319	0.5164686837	0.6085313442	0.4223474920	1.5199142945	0.0113280162	0.0089813698	0.0183023646
2.5980886186	0.5170724241	0.6082991724	0.4225028087	1.5206305056	0.0101645349	0.0092142889	0.0142526989
2.6022589053	0.5171667739	0.6081300583	0.4224508440	1.5203248969	0.0089686308	0.0089952204	0.0105736730
2.6064291920	0.5173992748	0.6081741800	0.4228370677	1.5200149191	0.0089415931	0.0084461847	0.0082727079
2.6105994787	0.5179809718	0.6084048134	0.4231288252	1.5199510393	0.0095314935	0.0082648258	0.0066723132
2.6147697654	0.5187306043	0.6087003777	0.4229948389	1.5199532504	0.0100102767	0.0086193124	0.0048142113
2.6189400521	0.5193163040	0.6088816663	0.4231678366	1.5199513744	0.0106220413	0.0086961767	0.0028188366
2.6231103388	0.5196316710	0.6085605435	0.4230729673	1.5199055122	0.0110704663	0.0089172438	0.0016525763
2.6272806255	0.5198593996	0.6080423737	0.4225157221	1.5197898443	0.0109289318	0.0094131808	0.0011446384
2.6314509123	0.5202701132	0.6081952742	0.4222090065	1.5195861444	0.0101466702	0.0096027205	-0.0000517103
2.6356211990	0.5205051221	0.6084011003	0.4221753464	1.5192904559	0.0097315898	0.0098026868	-0.0011417400
